<?xml version="1.0" encoding="UTF-8" standalone="no" ?>
<!DOCTYPE svg PUBLIC "-//W3C//DTD SVG 1.1//EN" "http://www.w3.org/Graphics/SVG/1.1/DTD/svg11.dtd">
<svg xmlns="http://www.w3.org/2000/svg" xmlns:xlink="http://www.w3.org/1999/xlink" version="1.1" width="1080" height="1080" viewBox="0 0 1080 1080" xml:space="preserve">
<desc>Created with Fabric.js 5.2.4</desc>
<defs>
</defs>
<g transform="matrix(1 0 0 1 540 540)" id="b2bf58a2-6188-4d20-9324-9725404bbd59"  >
<rect style="stroke: none; stroke-width: 1; stroke-dasharray: none; stroke-linecap: butt; stroke-dashoffset: 0; stroke-linejoin: miter; stroke-miterlimit: 4; fill: rgb(255,255,255); fill-rule: nonzero; opacity: 1; visibility: hidden;" vector-effect="non-scaling-stroke"  x="-540" y="-540" rx="0" ry="0" width="1080" height="1080" />
</g>
<g transform="matrix(1 0 0 1 540 540)" id="c2286164-31af-402c-bdfd-5adf9e055db7"  >
</g>
<g transform="matrix(0.19 0 0 0.19 537.01 467.5)"  >
<path style="stroke: none; stroke-width: 1; stroke-dasharray: none; stroke-linecap: butt; stroke-dashoffset: 0; stroke-linejoin: miter; stroke-miterlimit: 4; fill: rgb(253,205,104); fill-rule: nonzero; opacity: 1;" vector-effect="non-scaling-stroke"  transform=" translate(-3754.72, -2419.74)" d="M 2144.013672 2607.910889 C 2122.023193 2607.910889 2102.029541 2607.910889 2080.439209 2607.910889 C 2000.948242 2528.486328 1920.852661 2448.45752 1840.270508 2367.942383 C 1834.414917 2370.11499 1828.994995 2372.386963 1823.414673 2374.151855 C 1798.029663 2382.179443 1769.489624 2374.290771 1752.810547 2353.611816 C 1735.40979 2332.038086 1731.782715 2308.015625 1743.633789 2282.503662 C 1754.952515 2258.137939 1779.942505 2243.21875 1806.531128 2244.40332 C 1850.692261 2246.37085 1880.551514 2290.916016 1865.976685 2333.177002 C 1864.477295 2337.524414 1862.504395 2341.708252 1860.82959 2345.777588 C 1870.739624 2358.466309 2071.632812 2560.133545 2092.299805 2578.209717 C 2112.881104 2580.120117 3039.600342 2579.857666 3056.993896 2577.78833 C 3057.552734 2575.131836 3058.751953 2572.079102 3058.755859 2569.025146 C 3058.858154 2487.693604 3058.849121 2406.361816 3058.793701 2325.030273 C 3058.791504 2321.862061 3058.141357 2318.69458 3057.671387 2314.417969 C 3030.937744 2311.925781 3005.093262 2313.529053 2979.320557 2313.239502 C 2953.324219 2312.947266 2927.32251 2313.174805 2901.322998 2313.174805 C 2875.323486 2313.174805 2849.323975 2313.174805 2823.324463 2313.174805 C 2797.324951 2313.174805 2771.325684 2313.174805 2745.326172 2313.174805 C 2719.32666 2313.174805 2693.327148 2313.174805 2667.327637 2313.174805 C 2641.328125 2313.174805 2615.328857 2313.174805 2589.329346 2313.174805 C 2563.357178 2313.174805 2537.38501 2313.174805 2510.85376 2313.174805 C 2341.055908 2143.395264 2171.398193 1973.756226 2001.453613 1803.8302 C 1920.799927 1803.8302 1840.238281 1803.8302 1758.52771 1803.8302 C 1756.192017 1808.944336 1754.035522 1814.382812 1751.307617 1819.5177 C 1737.590088 1845.337891 1708.597412 1859.3573 1680.844116 1853.764771 C 1650.564331 1847.66333 1629.484497 1824.725708 1626.809082 1794.967163 C 1624.082031 1764.636597 1640.382202 1737.989258 1668.506714 1726.799561 C 1698.640625 1714.810547 1733.615479 1726.94519 1749.899902 1755.241455 C 1752.873413 1760.408447 1755.043701 1766.037842 1757.803711 1771.920654 C 1764.013184 1776.311279 1771.585693 1774.342041 1778.723999 1774.35791 C 1846.055542 1774.507812 1913.387695 1774.454346 1980.719604 1774.459351 C 1984.052856 1774.459595 1987.386841 1774.418091 1990.71936 1774.466064 C 2016.619751 1774.838745 2009.452393 1771.574219 2027.144897 1789.232178 C 2110.191406 1872.116577 2193.116699 1955.122192 2276.081543 2038.088257 C 2353.38916 2115.397217 2430.710938 2192.692383 2507.953125 2270.066895 C 2512.637695 2274.759521 2516.678711 2280.094482 2519.94043 2283.878906 C 2700.449707 2283.878906 2878.325439 2283.878906 3057.330322 2283.878906 C 3059.69751 2276.549316 3058.79834 2269.311768 3058.80249 2262.268555 C 3058.869385 2151.604004 3058.759277 2040.939453 3058.974854 1930.275513 C 3059.002197 1916.327515 3059.591553 1902.215698 3061.778564 1888.475586 C 3065.053711 1867.899414 3073.210938 1848.875854 3084.397705 1831.237305 C 3086.863037 1827.349487 3089.41626 1823.516968 3091.012451 1821.065918 C 3033.256836 1763.296143 2976.374268 1706.399658 2918.449951 1648.461304 C 2901.781006 1656.243652 2882.687988 1660.202393 2862.531494 1652.912842 C 2847.46582 1647.464355 2835.927734 1637.920288 2827.726562 1624.352539 C 2811.778564 1597.969116 2816.813477 1563.274048 2839.491455 1541.967529 C 2861.680176 1521.120605 2895.201172 1518.113892 2920.739502 1534.680054 C 2950.124268 1553.741333 2957.802002 1585.40332 2942.236328 1625.69458 C 2943.812012 1627.860229 2945.392334 1630.758301 2947.629883 1633.000732 C 3000.36377 1685.854248 3053.162109 1738.643066 3105.986816 1791.405762 C 3107.793457 1793.210327 3109.99707 1794.617676 3112.637207 1796.700439 C 3116.18457 1794.039307 3119.321777 1791.749023 3122.392334 1789.372681 C 3152.422363 1766.130981 3186.444336 1754.464111 3224.389404 1754.259033 C 3243.721924 1754.154541 3263.055176 1754.173096 3282.387939 1754.169922 C 3343.053467 1754.159912 3403.71875 1754.181763 3464.384277 1754.142944 C 3470.948486 1754.138794 3477.512695 1753.81897 3483.238281 1753.667725 C 3486.616699 1748.610962 3483.393311 1746.533081 3481.202393 1744.331421 C 3457.693359 1720.707397 3434.184082 1697.083008 3410.566406 1673.567749 C 3386.955322 1650.059082 3363.221191 1626.67395 3339.44043 1603.134644 C 3339.44043 1473.825684 3339.44043 1345.241699 3339.44043 1215.981812 C 3333.641113 1213.255127 3328.239258 1210.957031 3323.058105 1208.237915 C 3298.313232 1195.252441 3285.152588 1170.432129 3287.747314 1141.924316 C 3290.088379 1116.202759 3309.272461 1092.54126 3335.03833 1085.680908 C 3371.956299 1075.851562 3402.103271 1094.865601 3414.509033 1123.05127 C 3428.250732 1154.271118 3415.59668 1191.049072 3385.640869 1207.48938 C 3380.468018 1210.328491 3374.91626 1212.478149 3369.744141 1214.852295 C 3367.067871 1233.699829 3366.081543 1520.321045 3368.445068 1590.139526 C 3370.845703 1592.807861 3373.766357 1596.364624 3377.003418 1599.60498 C 3424.584717 1647.240601 3472.353516 1694.690674 3519.681396 1742.576538 C 3527.748535 1750.73877 3536.044678 1754.424438 3547.653564 1754.325195 C 3604.981689 1753.834839 3662.315918 1754.124634 3719.648193 1754.070435 C 3724.892334 1754.06543 3730.13623 1753.572876 3736.500488 1753.249878 C 3737.260742 1749.104614 3738.259033 1745.434082 3738.534668 1741.710205 C 3738.878174 1737.068604 3738.630371 1732.383057 3738.630371 1727.716431 C 3738.629639 1503.721069 3738.633301 1279.725586 3738.603516 1055.730225 C 3738.602539 1048.481445 3738.259277 1041.232544 3738.064697 1033.553955 C 3732.729736 1031.031372 3727.928955 1028.922729 3723.272217 1026.532837 C 3695.518311 1012.28833 3681.853516 983.835022 3687.843262 952.922302 C 3693.116699 925.707886 3717.87085 903.697083 3746.578125 900.697083 C 3776.675781 897.551758 3806.718506 917.585571 3815.927734 946.943115 C 3825.343262 976.958862 3813.037354 1008.873047 3785.855469 1024.403931 C 3780.141846 1027.668579 3774.041992 1030.25769 3767.899658 1033.266113 C 3767.899658 1272.861084 3767.899658 1512.044678 3767.899658 1752.567261 C 3771.361328 1753.12146 3774.406982 1754.032471 3777.453613 1754.035156 C 3862.118164 1754.109863 3946.782715 1754.100952 4031.447266 1754.050293 C 4034.035645 1754.048828 4036.623779 1753.455444 4040.311279 1753.003296 C 4041.042236 1749.188965 4042.12207 1745.512329 4042.371582 1741.780029 C 4042.726562 1736.470215 4042.476318 1731.119629 4042.476318 1725.786377 C 4042.477051 1578.456055 4042.476807 1431.125732 4042.476318 1283.79541 C 4042.476318 1280.462158 4042.759766 1277.099121 4042.417236 1273.80127 C 4041.448975 1264.475708 4044.858398 1257.58252 4051.661865 1250.943359 C 4079.809814 1223.475952 4107.434082 1195.471191 4135.217285 1167.630371 C 4139.895996 1162.942139 4144.40918 1158.089111 4149.51416 1152.775635 C 4147.413086 1146.432617 4145.53418 1140.182861 4143.284668 1134.069214 C 4133.640625 1107.858887 4146.836914 1064.379883 4188.632324 1052.380127 C 4224.109375 1042.19458 4261.30957 1062.4729 4270.632812 1097.365356 C 4277.287598 1122.273315 4272.223145 1145.202393 4253.210449 1163.566406 C 4234.296875 1181.833984 4211.599121 1186.219849 4186.584473 1179.264771 C 4181.536133 1177.861084 4176.793457 1175.358398 4171.161133 1173.056274 C 4166.735352 1177.167847 4162.287598 1181.057495 4158.111328 1185.21936 C 4133.084473 1210.158691 4108.517578 1235.579346 4082.920898 1259.917114 C 4073.827148 1268.563477 4070.816895 1277.483032 4070.854492 1289.709961 C 4071.237305 1415.039551 4071.089111 1540.370728 4071.089111 1665.701538 C 4071.089111 1689.034424 4071.089111 1712.367188 4071.089111 1735.700073 C 4071.089111 1740.922729 4071.088867 1746.145264 4071.088867 1750.380981 C 4076.887939 1755.717163 4082.481445 1753.974121 4087.516846 1753.997559 C 4126.181641 1754.177979 4164.848145 1754.112305 4203.513672 1754.099609 C 4226.350098 1754.092163 4248.666992 1756.945679 4270.086914 1765.415771 C 4333.255371 1790.394897 4375.101074 1850.63916 4375.54248 1919.129883 C 4376.041016 1996.458374 4375.666016 2073.79248 4375.741211 2151.124268 C 4375.748047 2158.346436 4374.916504 2165.686768 4377.118164 2173.586426 C 4382.717773 2173.955566 4387.892578 2174.591797 4393.067383 2174.594482 C 4511.064941 2174.652344 4629.0625 2174.553467 4747.05957 2174.802246 C 4757.036621 2174.823242 4764.599609 2172.426758 4771.876953 2165.092773 C 4836.674316 2099.789795 4901.833984 2034.846191 4966.869141 1969.779297 C 4968.27002 1968.377441 4969.464355 1966.768433 4971.292969 1964.625732 C 4971.292969 1805.276489 4971.292969 1645.349365 4971.292969 1487.075928 C 4946.972656 1462.84314 4923.449707 1439.405029 4898.969727 1415.013428 C 4895.078125 1416.391113 4889.564941 1418.627319 4883.886719 1420.306396 C 4849.293945 1430.536377 4813.730957 1412.234375 4801.980957 1378.273315 C 4790.314453 1344.551392 4807.473633 1307.468506 4841.413086 1295.072998 C 4865.80957 1286.16272 4889.093262 1289.614502 4908.57959 1307.286255 C 4928.38623 1325.248779 4935.945312 1347.780518 4928.643555 1374.240112 C 4927.061035 1379.974854 4924.795898 1385.52124 4922.44873 1392.299072 C 4932.793457 1407.181396 4947.561523 1418.681519 4960.283691 1432.022705 C 4973.141602 1445.505981 4986.524902 1458.488647 4999.751953 1471.765137 C 4999.751953 1640.089111 4999.751953 1807.998169 4999.751953 1974.191528 C 4923.435059 2050.510742 4848.075195 2125.873047 4770.470215 2203.480713 C 4641.912109 2203.480713 4510.062988 2203.480713 4379.318848 2203.480713 C 4377.772949 2205.177979 4377.253906 2205.625 4376.895996 2206.176758 C 4376.555176 2206.701416 4376.167969 2207.334961 4376.16748 2207.920898 C 4375.999023 2369.910645 4375.859375 2531.900146 4375.737305 2693.889893 C 4375.733398 2699.220215 4375.82959 2704.554932 4376.084473 2709.877686 C 4376.144043 2711.122803 4377.041992 2712.327637 4377.834473 2714.218506 C 4382.082031 2714.512207 4386.646973 2715.094482 4391.212891 2715.102051 C 4431.211914 2715.166748 4471.216797 2714.759033 4511.207031 2715.362305 C 4522.256348 2715.529053 4529.777344 2711.686279 4537.348145 2704.062256 C 4603.580566 2637.365723 4670.176758 2571.030273 4736.570312 2504.493652 C 4741.738281 2499.313965 4746.192383 2493.421631 4750.692871 2488.192871 C 5085.089355 2488.192871 5417.610352 2488.192871 5749.861328 2488.192871 C 5753.273926 2481.114258 5755.788086 2474.960693 5759.071777 2469.249512 C 5774.03418 2443.227295 5804.362793 2430.602051 5832.68457 2437.995117 C 5859.380371 2444.963379 5882.380371 2468.434814 5882.913574 2502.51709 C 5883.381836 2532.412354 5861.794434 2560.130127 5832.46582 2566.802002 C 5797.766113 2574.696045 5771.680176 2557.675781 5758.882812 2535.306885 C 5755.607422 2529.582275 5753.156738 2523.385986 5750.138672 2517.006836 C 5422.121582 2517.006836 5094.175293 2517.006836 4764.54248 2517.006836 C 4689.582031 2591.95166 4613.746094 2667.771973 4537.809082 2743.693115 C 4510.633789 2743.693115 4483.986328 2743.684326 4457.338867 2743.695557 C 4430.833008 2743.706787 4404.325195 2743.639404 4376.518066 2743.755615 C 4376.193848 2749.855957 4375.754883 2754.328125 4375.749023 2758.801025 C 4375.695801 2799.466797 4375.234863 2840.140381 4375.869629 2880.796143 C 4376.383789 2913.735352 4374.314453 2946.032227 4359.322754 2976.918701 C 4364.911133 2982.460205 4369.953613 2987.660156 4375.205078 2992.638672 C 4520.828613 3130.684326 4666.516113 3268.661377 4812.064941 3406.785645 C 4833.216309 3426.858154 4829.396484 3418.094482 4829.441895 3447.905029 C 4829.612305 3559.902588 4829.510254 3671.900391 4829.510742 3783.898193 C 4829.510742 3791.157959 4829.510742 3798.417725 4829.510742 3806.214844 C 4835.214844 3808.764648 4840.094238 3810.687012 4844.740234 3813.06543 C 4872.453613 3827.251221 4886.180176 3855.812256 4880.22998 3886.649658 C 4874.790527 3914.8396 4849.566895 3937.091797 4819.616699 3938.974121 C 4789.841797 3940.845459 4761.733887 3922.604492 4752.202637 3892.813721 C 4742.59082 3862.768066 4754.905273 3831.111572 4782.201172 3815.35791 C 4787.896484 3812.071289 4794.008301 3809.506348 4800.267578 3806.442139 C 4800.267578 3682.898926 4800.267578 3559.644043 4800.267578 3434.895508 C 4649.147461 3291.645508 4497.396973 3147.798828 4344.698242 3003.052734 C 4340.726562 3007.428711 4337.672363 3010.756104 4334.658691 3014.118896 C 4300.69043 3052.020752 4258.043457 3070.961914 4207.366699 3071.16333 C 4124.703125 3071.491699 4042.037354 3071.243164 3959.372314 3071.287109 C 3952.173828 3071.291016 3944.975342 3071.661377 3938.838135 3071.832031 C 3937.389893 3073.400391 3936.835938 3073.832275 3936.514893 3074.396729 C 3936.206299 3074.938965 3935.987549 3075.618408 3935.987549 3076.237549 C 3935.965088 3205.549805 3935.966064 3334.862061 3935.966064 3465.330566 C 3914.25 3487.461426 3892.04126 3509.426025 3869.981201 3531.532959 C 3848.320312 3553.240234 3826.619873 3574.908447 3804.941895 3596.598877 C 3782.833252 3618.719971 3760.730713 3640.84668 3738.317383 3663.279297 C 3740.641602 3670.179688 3742.997559 3676.314941 3744.779297 3682.612305 C 3752.663086 3710.47998 3741.421875 3740.209717 3717.233154 3755.920898 C 3692.429443 3772.031006 3659.735352 3769.683105 3637.387939 3750.186523 C 3615.684082 3731.250977 3608.66333 3699.874512 3620.24707 3673.578125 C 3632.253662 3646.322754 3660.656738 3630.257568 3690.105713 3634.862549 C 3699.173828 3636.280518 3707.925293 3639.724365 3717.877197 3642.539307 C 3721.641113 3639.006836 3726.079346 3635.060547 3730.274658 3630.871094 C 3784.993164 3576.229248 3839.678467 3521.554199 3894.366211 3466.881592 C 3896.721191 3464.526611 3898.889648 3461.968994 3901.373779 3459.763184 C 3905.703613 3455.919189 3907.380127 3451.171631 3907.107666 3445.498779 C 3906.947998 3442.173584 3907.097168 3438.83374 3907.097412 3435.500488 C 3907.100342 3321.50293 3907.102051 3207.505127 3907.104004 3093.507568 C 3907.104004 3086.882324 3907.104004 3080.25708 3907.104004 3073.74585 C 3904.156494 3072.756836 3902.30542 3071.59375 3900.453369 3071.591797 C 3794.50415 3071.504883 3688.555176 3071.514404 3583.008789 3071.514404 C 3577.84082 3077.200439 3579.820801 3083.490723 3579.807861 3089.217285 C 3579.658447 3155.215332 3579.712891 3221.214355 3579.713379 3287.212891 C 3579.713623 3294.53833 3579.713623 3301.86377 3579.713623 3310.740723 C 3546.715332 3344.27417 3512.594482 3377.851807 3478.320312 3412.387939 C 3480.382812 3418.314209 3482.304688 3423.822754 3484.217529 3429.334717 C 3495.429932 3461.640381 3477.535645 3499.861572 3443.380127 3511.912109 C 3408.590088 3524.187256 3371.179688 3506.927979 3358.895996 3472.036377 C 3349.975342 3446.696533 3354.508057 3423.134033 3373.312012 3403.539307 C 3392.136963 3383.923096 3415.397705 3379.202637 3441.238525 3386.283936 C 3446.299316 3387.67041 3451.074463 3390.098389 3456.503174 3392.253174 C 3458.604248 3390.662109 3460.870117 3389.32251 3462.67627 3387.521729 C 3489.111816 3361.168213 3515.393799 3334.659668 3541.946289 3308.424805 C 3547.914062 3302.528076 3551.455322 3296.679199 3551.401123 3287.618164 C 3550.98999 3218.955322 3551.177246 3150.289062 3551.128662 3081.623779 C 3551.126953 3078.986328 3550.627441 3076.349609 3550.358887 3073.700928 C 3543.350342 3069.60376 3535.864502 3071.383789 3528.725586 3071.37207 C 3444.061035 3071.234619 3359.395752 3071.417725 3274.731445 3071.208252 C 3246.122803 3071.137695 3217.406494 3073.32251 3189.017822 3067.229736 C 3185.05542 3070.781494 3181.489258 3073.687988 3178.251465 3076.92334 C 3079.687988 3175.401123 2981.259521 3274.014404 2882.443115 3372.237305 C 2873.697021 3380.931396 2869.729736 3389.520996 2870.020996 3401.94873 C 2870.817383 3435.929443 2870.297607 3469.941162 2870.299072 3503.94043 C 2870.299316 3508.557617 2870.299561 3513.175049 2870.299561 3518.428955 C 2876.681152 3521.620605 2882.726562 3524.179199 2888.306641 3527.515625 C 2912.262207 3541.8396 2924.142822 3563.183838 2921.686768 3590.946533 C 2919.155273 3619.566895 2903.351074 3639.117188 2876.04541 3648.303955 C 2843.572266 3659.22876 2808.548584 3643.009521 2794.932861 3611.475342 C 2781.68457 3580.791992 2793.296631 3545.068359 2822.230469 3528.154297 C 2827.939941 3524.81665 2834.122314 3522.288086 2841.266113 3518.812988 C 2841.266113 3512.447998 2841.266113 3505.851807 2841.266113 3499.255371 C 2841.265625 3464.589355 2841.117188 3429.922852 2841.314697 3395.257812 C 2841.458008 3370.149414 2838.302734 3376.506836 2856.004639 3358.788574 C 2950.711426 3263.994873 3045.481445 3169.264404 3140.210938 3074.493408 C 3145.361572 3069.340576 3150.344971 3064.020752 3156.396973 3057.752197 C 3150.612061 3054.206543 3145.730225 3051.183838 3140.819092 3048.209473 C 3098.677734 3022.687744 3071.87915 2985.989258 3062.104736 2937.678711 C 3059.357178 2924.097412 3058.989258 2909.868896 3058.947266 2895.932861 C 3058.682129 2807.935791 3058.815674 2719.937012 3058.817871 2631.938965 C 3058.817871 2624.657959 3058.817871 2617.376953 3058.817871 2610.759277 C 3056.381836 2609.476807 3055.213379 2608.322998 3054.044434 2608.322266 C 2751.366455 2608.132324 2448.688232 2608.022705 2144.013672 2607.910889 M 4286.020508 1856.334473 C 4269.808105 1837.331299 4249.388184 1825.564453 4224.727051 1821.77417 C 4216.228027 1820.467896 4207.472168 1820.483032 4198.833984 1820.481445 C 3878.263672 1820.423096 3557.693115 1820.433105 3237.122803 1820.439575 C 3231.125 1820.439697 3225.112793 1820.255737 3219.131348 1820.589478 C 3173.610596 1823.128784 3135.527832 1856.324463 3127.275879 1901.282471 C 3125.367676 1911.677368 3124.899658 1922.459106 3124.895752 1933.06311 C 3124.776367 2252.967041 3124.798096 2572.871094 3124.802246 2892.775146 C 3124.80249 2898.106445 3124.630127 2903.450684 3124.926025 2908.767334 C 3127.467529 2954.432617 3157.854492 2991.536865 3202.12793 3001.696289 C 3212.998291 3004.190674 3224.587646 3004.246582 3235.84668 3004.251221 C 3557.08374 3004.383057 3878.320557 3004.365234 4199.557617 3004.36792 C 4204.222656 3004.36792 4208.891602 3004.436523 4213.552246 3004.275391 C 4254.647461 3002.855225 4290.620605 2975.855713 4303.910156 2936.936523 C 4308.760742 2922.731689 4308.833008 2908.167969 4308.831543 2893.489014 C 4308.809082 2624.903076 4308.815918 2356.316895 4308.813477 2087.730957 C 4308.813477 2033.747192 4308.440918 1979.759888 4308.953125 1925.781006 C 4309.189941 1900.833008 4303.157227 1878.3927 4286.020508 1856.334473 z" stroke-linecap="round" />
</g>
<g transform="matrix(0.19 0 0 0.19 510.5 234.86)"  >
<path style="stroke: none; stroke-width: 1; stroke-dasharray: none; stroke-linecap: butt; stroke-dashoffset: 0; stroke-linejoin: miter; stroke-miterlimit: 4; fill: rgb(253,205,104); fill-rule: nonzero; opacity: 1;" vector-effect="non-scaling-stroke"  transform=" translate(-3606.8, -1196.07)" d="M 4331.336914 876.662476 C 4289.334961 834.664917 4248.209473 793.788879 4207.456543 752.545349 C 4200.422852 745.427185 4193.332031 740.776184 4183.006348 742.13739 C 4179.075684 742.655518 4175.02002 742.221497 4171.020996 742.221497 C 3897.098145 742.220886 3623.175537 742.220398 3349.252686 742.219666 C 3347.919678 742.219666 3346.557129 742.400513 3345.258545 742.188416 C 3332.091309 740.037354 3323.049072 746.036621 3313.930176 755.190369 C 3188.811279 880.786072 3063.359619 1006.050171 2937.990967 1131.397217 C 2880.962158 1188.415894 2823.929199 1245.430176 2766.925293 1302.473511 C 2762.728516 1306.673096 2758.750977 1311.092041 2754.188965 1315.9198 C 2756.483643 1322.330566 2759.036865 1328.384766 2760.828857 1334.656616 C 2768.579834 1361.781982 2761.311279 1385.116089 2740.470215 1403.267334 C 2719.510742 1421.521973 2695.05249 1425.111694 2669.644043 1413.312012 C 2644.366699 1401.573242 2631.221436 1381.042847 2631.120605 1353.028931 C 2630.953125 1306.551758 2676.506836 1275.018921 2720.367188 1290.971802 C 2724.720215 1292.555176 2728.958984 1294.452759 2734.620605 1296.763672 C 2928.021973 1103.37146 3121.640381 909.762207 3315.875488 715.536438 C 3322.362549 715.536438 3328.982666 715.536438 3335.603027 715.536438 C 3620.189453 715.53595 3904.775879 715.535522 4189.362305 715.535461 C 4192.694824 715.535461 4196.056152 715.826477 4199.353027 715.485413 C 4205.992188 714.798645 4210.922363 717.457764 4215.075195 722.382019 C 4217.216309 724.920532 4219.744629 727.132263 4222.101074 729.488647 C 4320.125 827.513306 4418.149902 925.537292 4516.174316 1023.561951 C 4518.530762 1025.917969 4520.75293 1028.428223 4523.26416 1030.60498 C 4527.624023 1034.383545 4529.451172 1039.002197 4529.181641 1044.750122 C 4528.932617 1050.069824 4529.148926 1055.411133 4529.148926 1060.74292 C 4529.150391 1214.033081 4529.149902 1367.32312 4529.149902 1520.613281 C 4529.149902 1527.890381 4529.149902 1535.167603 4529.149902 1543.322876 C 4535.52002 1546.357666 4541.491211 1548.9104 4547.191895 1551.966919 C 4577.599609 1568.270386 4590.516113 1604.375244 4577.34375 1635.898926 C 4565.742188 1663.664307 4539.375488 1679.178345 4508.432617 1676.444824 C 4480.299316 1673.959473 4456.696777 1652.138794 4450.995117 1623.344971 C 4445.338867 1594.776367 4458.462402 1566.38269 4484.039551 1552.363281 C 4489.236328 1549.515015 4494.841797 1547.41272 4501.472168 1544.418701 C 4501.900391 1539.718994 4502.762207 1534.59668 4502.772949 1529.472534 C 4502.874512 1480.15332 4502.83252 1430.833862 4502.83252 1381.514404 C 4502.832031 1278.210205 4502.83252 1174.905884 4502.832031 1071.601685 C 4502.832031 1066.936401 4502.592285 1062.256714 4502.87793 1057.609253 C 4503.275391 1051.145996 4501.20459 1045.96875 4496.352051 1041.634766 C 4492.384277 1038.090454 4488.779297 1034.140625 4485.01123 1030.372192 C 4434.121094 979.467896 4383.230469 928.563782 4331.336914 876.662476 z" stroke-linecap="round" />
</g>
<g transform="matrix(0.19 0 0 0.19 522.2 699.79)"  >
<path style="stroke: none; stroke-width: 1; stroke-dasharray: none; stroke-linecap: butt; stroke-dashoffset: 0; stroke-linejoin: miter; stroke-miterlimit: 4; fill: rgb(253,205,104); fill-rule: nonzero; opacity: 1;" vector-effect="non-scaling-stroke"  transform=" translate(-3665.22, -3623.69)" d="M 3692.002441 3962.676758 C 3772.653809 3962.676758 3851.304932 3962.67749 3929.956055 3962.675049 C 3934.621826 3962.675049 3939.294434 3962.487305 3943.951416 3962.685059 C 3949.726074 3962.930664 3954.249756 3960.698486 3958.056885 3956.532227 C 3959.85083 3954.569092 3961.852051 3952.796387 3963.735107 3950.913086 C 4049.031006 3865.599609 4134.32666 3780.285645 4219.605469 3694.955566 C 4222.42334 3692.136475 4225.071777 3689.149658 4228.047852 3685.975586 C 4228.047852 3586.930664 4228.047852 3487.745117 4228.047852 3388.213867 C 4222.262695 3385.465088 4216.772949 3383.178223 4211.585938 3380.337646 C 4185.810547 3366.221436 4172.333496 3337.393555 4178.290527 3309.487305 C 4184.662109 3279.639404 4208.70166 3258.020508 4237.759766 3256.005615 C 4268.09082 3253.9021 4294.65918 3270.697266 4305.368164 3298.74292 C 4316.970215 3329.127686 4304.520508 3363.855225 4276.101074 3379.877686 C 4270.930176 3382.793213 4265.356934 3384.995605 4259.648438 3387.677979 C 4255.894043 3394.472168 4257.544434 3401.945312 4257.53418 3409.06543 C 4257.405762 3498.381104 4257.523438 3587.696777 4257.400879 3677.012451 C 4257.367188 3701.360596 4260.054688 3694.872803 4243.268066 3711.688721 C 4155.678711 3799.427002 4067.980957 3887.056885 3980.304932 3974.70874 C 3974.678467 3980.333984 3968.914307 3985.821777 3963.190674 3991.39624 C 3956.58667 3991.39624 3950.61377 3991.39624 3944.640625 3991.39624 C 3817.33252 3991.39624 3690.024414 3991.395996 3562.716309 3991.395508 C 3559.383545 3991.395264 3556.022705 3991.111572 3552.724121 3991.447021 C 3546.124512 3992.11792 3541.191406 3989.403076 3536.864746 3984.741943 C 3533.239746 3980.837158 3529.33667 3977.191162 3525.566406 3973.420654 C 3396.897705 3844.753418 3268.233154 3716.082031 3139.552002 3587.427246 C 3134.410156 3582.286377 3129.111084 3577.302979 3123.552734 3571.924805 C 3118.17334 3573.968018 3113.356689 3575.991455 3108.416016 3577.643311 C 3073.755371 3589.231445 3035.941162 3570.675049 3024.333496 3536.450439 C 3012.3125 3501.00708 3031.49585 3463.015869 3067.145264 3451.665283 C 3101.893066 3440.601562 3139.260986 3459.561768 3150.31543 3494.338379 C 3154.861572 3508.639893 3154.5896 3523.233887 3149.501709 3537.524902 C 3147.968262 3541.833008 3146.184082 3546.051758 3144.276367 3550.919434 C 3148.939941 3555.830811 3153.380127 3560.722168 3158.045166 3565.388672 C 3284.808105 3692.191162 3411.593994 3818.970215 3538.377441 3945.752197 C 3540.733398 3948.108154 3543.422363 3950.208008 3545.413086 3952.838379 C 3551.693604 3961.13623 3559.958984 3962.97583 3570.0271 3962.862305 C 3610.014404 3962.412354 3650.01001 3962.677002 3692.002441 3962.676758 z" stroke-linecap="round" />
</g>
<g transform="matrix(0.19 0 0 0.19 797.51 776.82)"  >
<path style="stroke: none; stroke-width: 1; stroke-dasharray: none; stroke-linecap: butt; stroke-dashoffset: 0; stroke-linejoin: miter; stroke-miterlimit: 4; fill: rgb(253,205,104); fill-rule: nonzero; opacity: 1;" vector-effect="non-scaling-stroke"  transform=" translate(-5099.92, -4029.97)" d="M 4914.544922 3310.411133 C 4893.63623 3301.319336 4880.376465 3287.165283 4874.653809 3266.589355 C 4867.358887 3240.359131 4874.059082 3217.511475 4893.958496 3199.404785 C 4914.635254 3180.591797 4939.086426 3176.875244 4964.589355 3187.771729 C 4989.370605 3198.359619 5002.800293 3218.109375 5004.304688 3245.220703 C 5004.668457 3251.781982 5003.961426 3258.583496 5002.548828 3265.01123 C 5001.145508 3271.398438 4998.231445 3277.453613 4995.649414 3284.565674 C 5010.025391 3300.861816 5026.108887 3315.740479 5041.456055 3331.310059 C 5056.893555 3346.970459 5072.5 3362.465576 5088.098145 3377.966553 C 5103.684082 3393.455078 5119.351562 3408.86084 5135.166992 3424.484619 C 5135.166992 3838.126465 5135.166992 4251.184082 5135.166992 4663.061035 C 5149.170898 4680.259766 5214.119629 4744.90625 5226.383301 4754.07666 C 5267.973145 4738.840332 5298.96875 4746.525879 5317.932129 4776.777832 C 5334.505859 4803.217285 5330.372559 4837.468262 5307.974609 4859.289062 C 5285.587891 4881.099121 5251.328125 4884.45459 5225.203125 4867.395996 C 5196.279785 4848.510254 5188.703125 4816.709473 5204.152344 4775.974609 C 5201.594238 4773.018555 5198.831055 4769.412109 5195.652832 4766.219238 C 5169.325195 4739.772461 5143.065918 4713.254883 5116.437988 4687.112305 C 5109.845703 4680.640137 5105.674316 4674.003418 5106.811035 4664.461426 C 5107.358887 4659.862305 5106.90332 4655.143066 5106.90332 4650.478516 C 5106.90332 4254.64502 5106.937012 3858.811523 5106.838379 3462.978027 C 5106.830566 3431.595459 5110.629883 3441.227051 5087.885742 3418.279541 C 5055.049805 3385.149902 5021.975098 3352.256348 4988.964844 3319.299316 C 4984.301758 3314.643555 4979.429199 3310.197266 4974.30957 3305.32666 C 4955.166992 3314.431152 4936.015137 3318.425049 4914.544922 3310.411133 z" stroke-linecap="round" />
</g>
<g transform="matrix(0.19 0 0 0.19 822.39 312.59)"  >
<path style="stroke: none; stroke-width: 1; stroke-dasharray: none; stroke-linecap: butt; stroke-dashoffset: 0; stroke-linejoin: miter; stroke-miterlimit: 4; fill: rgb(253,205,104); fill-rule: nonzero; opacity: 1;" vector-effect="non-scaling-stroke"  transform=" translate(-5232.65, -1603.62)" d="M 5679.932617 2235.068604 C 5672.318848 2221.662109 5670.400391 2208.555664 5671.992676 2195.05957 C 5674.674805 2172.314209 5686.492676 2155.386963 5706.414551 2144.228027 C 5711.547852 2141.353027 5717.083008 2139.196045 5722.048828 2136.888184 C 5724.037109 2120.115479 5724.753418 1690.677612 5722.998535 1659.758301 C 5509.987305 1446.73938 5297.53125 1234.276245 5084.254883 1020.992676 C 4988.343262 1020.992676 4891.090332 1020.992676 4793.618164 1020.992676 C 4790.819824 1026.545898 4788.360352 1032.00415 4785.411621 1037.183838 C 4770.839844 1062.782227 4742.321289 1075.566528 4714.11084 1069.302124 C 4684.549805 1062.737793 4663.503906 1039.362305 4661.386719 1009.171875 C 4659.318848 979.678833 4676.945312 953.234802 4703.324707 942.869263 C 4735.015625 930.416687 4771.268555 943.921326 4786.823242 974.439758 C 4789.514648 979.719299 4791.453613 985.382019 4794.14209 991.832703 C 4895.151367 991.832703 4996.358398 991.832703 5095.581543 991.832703 C 5314.756348 1211.010498 5532.414551 1428.671509 5751.833984 1648.09436 C 5751.833984 1808.763062 5751.833984 1971.926025 5751.833984 2135.780029 C 5758.256348 2138.873535 5764.377441 2141.268555 5769.94043 2144.596924 C 5794.563477 2159.330322 5806.151367 2181.171387 5803.764648 2209.816162 C 5801.583984 2235.990723 5782.614746 2258.970215 5756.665039 2266.127197 C 5732.472168 2272.799316 5710.405273 2267.905273 5691.925293 2250.347168 C 5687.629883 2246.266357 5684.356445 2241.109619 5679.932617 2235.068604 z" stroke-linecap="round" />
</g>
<g transform="matrix(0.19 0 0 0.19 184.91 575.9)"  >
<path style="stroke: none; stroke-width: 1; stroke-dasharray: none; stroke-linecap: butt; stroke-dashoffset: 0; stroke-linejoin: miter; stroke-miterlimit: 4; fill: rgb(253,205,104); fill-rule: nonzero; opacity: 1;" vector-effect="non-scaling-stroke"  transform=" translate(-1901.8, -2977.87)" d="M 1708.867798 3159.131348 C 1746.169678 3196.412109 1782.720337 3232.449707 1818.592773 3269.150146 C 1827.161621 3277.916748 1835.716431 3281.74707 1848.189575 3281.670166 C 1935.505005 3281.130127 2022.825439 3281.390625 2110.144287 3281.395264 C 2114.810303 3281.395508 2119.535645 3281.874512 2124.130371 3281.303223 C 2135.765137 3279.855957 2144.104492 3284.578369 2152.115723 3292.828613 C 2178.579834 3320.081787 2205.662109 3346.735596 2232.53833 3373.588379 C 2235.340088 3376.387451 2238.348145 3378.980469 2241.930176 3382.287842 C 2248.132324 3380.121826 2254.216553 3377.79126 2260.426025 3375.863525 C 2292.599854 3365.875 2331.293945 3384.13208 2342.275879 3421.2229 C 2350.169434 3447.883545 2339.95874 3477.310547 2316.963135 3493.827881 C 2294.484131 3509.973633 2262.898193 3510.00708 2240.092041 3493.90918 C 2216.94043 3477.56665 2206.679688 3448.450439 2214.729248 3421.527344 C 2216.429443 3415.840576 2218.632324 3410.304199 2220.918945 3403.80249 C 2218.063965 3400.522217 2215.273438 3396.921631 2212.085449 3393.716553 C 2188.112793 3369.616699 2163.767334 3345.878418 2140.198242 3321.392334 C 2132.118896 3312.998047 2123.518799 3310.038086 2112.069824 3310.086426 C 2025.419067 3310.454102 1938.765991 3310.287598 1852.11377 3310.282959 C 1844.781738 3310.282471 1837.438232 3309.984863 1830.120728 3310.301514 C 1823.015747 3310.608643 1817.03479 3308.923828 1812.372437 3303.231201 C 1810.271484 3300.665283 1807.720581 3298.466553 1805.364136 3296.110596 C 1712.036865 3202.792969 1618.658813 3109.525635 1525.423584 3016.115967 C 1507.75 2998.40918 1510.789307 3005.883545 1510.763916 2979.679443 C 1510.642944 2855.033447 1510.709351 2730.387451 1510.709106 2605.741455 C 1510.709106 2598.442383 1510.709229 2591.143311 1510.709229 2583.256104 C 1504.312622 2580.141357 1498.193481 2577.673584 1492.587646 2574.342285 C 1470.150879 2561.007324 1458.22583 2541.366699 1458.700317 2515.007568 C 1459.159546 2489.494629 1471.126343 2470.342041 1493.127197 2457.992676 C 1524.138428 2440.585938 1563.853149 2451.833984 1581.977539 2482.509277 C 1600.599365 2514.026611 1590.417358 2554.340576 1558.895996 2573.10083 C 1553.230225 2576.4729 1547.027954 2578.943115 1541.056763 2581.837891 C 1539.013916 2596.399902 1538.339966 2960.931152 1540.393921 2990.61792 C 1595.773315 3046.01001 1651.820801 3102.070557 1708.867798 3159.131348 z" stroke-linecap="round" />
</g>
<g transform="matrix(0.19 0 0 0.19 374.3 654.01)"  >
<path style="stroke: none; stroke-width: 1; stroke-dasharray: none; stroke-linecap: butt; stroke-dashoffset: 0; stroke-linejoin: miter; stroke-miterlimit: 4; fill: rgb(253,205,104); fill-rule: nonzero; opacity: 1;" vector-effect="non-scaling-stroke"  transform=" translate(-2890.03, -3385.86)" d="M 2694.858643 3074.858643 C 2663.734131 3106.005615 2633.609131 3136.1521 2603.491455 3166.291504 C 2603.491455 3313.435547 2603.491455 3460.010254 2603.491455 3605.141846 C 2680.317627 3682.045166 2756.147217 3757.950684 2833.056641 3834.937012 C 2912.163818 3834.937012 2992.679199 3834.937012 3073.804932 3834.937012 C 3076.253418 3829.531494 3078.358643 3823.999512 3081.161377 3818.84668 C 3094.573975 3794.187988 3121.489014 3777.665527 3155.639893 3785.277344 C 3185.002197 3791.821777 3206.553467 3819.299072 3206.263916 3849.438232 C 3205.936035 3883.547852 3183.717773 3907.590332 3154.480469 3914.675781 C 3125.407715 3921.721191 3094.67334 3907.126465 3080.59082 3879.813477 C 3078.17627 3875.130615 3076.318115 3870.160645 3073.890381 3864.60791 C 2990.006836 3864.60791 2906.073242 3864.60791 2822.045166 3864.60791 C 2818.217285 3861.286377 2814.54834 3858.474365 2811.306152 3855.234863 C 2735.851807 3779.847412 2660.530762 3704.325928 2584.893311 3629.122559 C 2577.254883 3621.528076 2573.783447 3613.891357 2573.809326 3602.920898 C 2574.148682 3458.928711 2574.169434 3314.935059 2573.791016 3170.943115 C 2573.76001 3159.173584 2577.810547 3151.145996 2585.869141 3143.155273 C 2642.674072 3086.831299 2699.130371 3030.155762 2755.680176 2973.574707 C 2760.819336 2968.433105 2765.834961 2963.168213 2771.030273 2957.835205 C 2761.606934 2938.391846 2757.907471 2919.156006 2765.364014 2899.091797 C 2770.638428 2884.898682 2779.666992 2873.57251 2792.475342 2865.446045 C 2818.63623 2848.847412 2853.126953 2852.933594 2875.110107 2875.113525 C 2896.880859 2897.079102 2900.413086 2932.044678 2883.474854 2957.919678 C 2864.482422 2986.933838 2833.57373 2994.411865 2791.878174 2979.276367 C 2774.899658 2993.077637 2760.062988 3010.121094 2743.981445 3025.81543 C 2727.760498 3041.645264 2711.88501 3057.829346 2694.858643 3074.858643 z" stroke-linecap="round" />
</g>
<g transform="matrix(0.19 0 0 0.19 937.78 516.43)"  >
<path style="stroke: none; stroke-width: 1; stroke-dasharray: none; stroke-linecap: butt; stroke-dashoffset: 0; stroke-linejoin: miter; stroke-miterlimit: 4; fill: rgb(253,205,104); fill-rule: nonzero; opacity: 1;" vector-effect="non-scaling-stroke"  transform=" translate(-5833.16, -2667.09)" d="M 6131.745605 2828 C 6131.744629 2867.984131 6131.539551 2905.969971 6131.896973 2943.950684 C 6131.978027 2952.573486 6129.547363 2958.938232 6123.349121 2965.087158 C 6071.30957 3016.711914 6019.387695 3068.458008 5967.899902 3120.631592 C 5960.393066 3128.239258 5952.435059 3129.430908 5942.820312 3129.411865 C 5858.188965 3129.243652 5773.558105 3129.305176 5688.926758 3129.330078 C 5681.697266 3129.332275 5674.467773 3129.560791 5667.105469 3129.686523 C 5664.112793 3136.058594 5661.902832 3141.569092 5659.043457 3146.719482 C 5643.204102 3175.247559 5612.470703 3188.131348 5580.480469 3178.388916 C 5549.77002 3169.036377 5530.303711 3139.341553 5535.174805 3105.140381 C 5539.584961 3074.181152 5566.470703 3049.360107 5598.350586 3048.755615 C 5624.350098 3048.262207 5644.581055 3059.719238 5658.058594 3082.177002 C 5661.119629 3087.277588 5663.130859 3093.007812 5665.711914 3098.637451 C 5666.055176 3098.827881 5666.608887 3099.174805 5667.196777 3099.449707 C 5667.793945 3099.729248 5668.424316 3100.146729 5669.041016 3100.147949 C 5756.996582 3100.322754 5844.952637 3100.465332 5932.908203 3100.607666 C 5937.537109 3100.615234 5942.166504 3100.608643 5946.397949 3100.608643 C 5950.444336 3096.814697 5953.92334 3093.728516 5957.20752 3090.447266 C 6001.996094 3045.706787 6046.604004 3000.783447 6091.666992 2956.321289 C 6099.828613 2948.268555 6103.458496 2940.036621 6103.437012 2928.396729 C 6103.111816 2752.471191 6103.132812 2576.544189 6103.405762 2400.618408 C 6103.422363 2389.806396 6100.459473 2381.966309 6092.604004 2374.320801 C 6062.04541 2344.580322 6032.166504 2314.142578 6001.991699 2284.007568 C 5999.227051 2281.246826 5996.152344 2278.796631 5993.520996 2276.467285 C 5951.839844 2292.131348 5919.95166 2284.332275 5901.030273 2254.342529 C 5884.549805 2228.219727 5888.679688 2193.578613 5910.880371 2171.712646 C 5933.244141 2149.685791 5967.435059 2146.281982 5993.531738 2163.484619 C 6022.792969 2182.773193 6030.299316 2213.903809 6014.871094 2254.641846 C 6017.409668 2257.717285 6020.038574 2261.474854 6023.226074 2264.675537 C 6054.729492 2296.311523 6086.337891 2327.843506 6117.882812 2359.438232 C 6122.55957 2364.121826 6127.06543 2368.976807 6131.745605 2373.852295 C 6131.745605 2524.818604 6131.745605 2675.409424 6131.745605 2828 z" stroke-linecap="round" />
</g>
<g transform="matrix(0.19 0 0 0.19 137.34 462.25)"  >
<path style="stroke: none; stroke-width: 1; stroke-dasharray: none; stroke-linecap: butt; stroke-dashoffset: 0; stroke-linejoin: miter; stroke-miterlimit: 4; fill: rgb(253,205,104); fill-rule: nonzero; opacity: 1;" vector-effect="non-scaling-stroke"  transform=" translate(-1653.22, -2382.79)" d="M 1736 2111.889648 C 1639.39563 2111.889648 1544.791138 2111.889648 1451.952393 2111.889648 C 1400.886353 2162.993896 1351.013306 2212.903809 1300.053345 2263.901855 C 1300.053345 2375.191895 1300.053345 2488.381104 1300.053345 2601.683594 C 1306.387329 2604.783936 1312.470703 2607.325684 1318.126465 2610.60498 C 1343.516357 2625.324707 1356.203979 2654.480957 1349.557739 2682.262451 C 1342.28894 2712.64624 1317.512939 2733.181885 1286.731079 2734.337402 C 1258.286133 2735.404785 1231.90271 2717.164307 1222.183105 2689.711182 C 1211.607422 2659.840088 1224.098267 2626.289307 1251.925659 2610.372559 C 1257.10083 2607.412354 1262.718872 2605.227051 1268.526855 2602.499268 C 1272.628418 2596.077393 1270.716797 2588.543701 1270.726196 2581.411133 C 1270.860718 2479.464111 1270.818359 2377.51709 1270.81897 2275.570068 C 1270.81897 2271.572266 1271.165405 2267.538574 1270.755249 2263.583496 C 1269.788696 2254.263428 1273.07251 2247.246582 1279.908325 2240.719238 C 1296.770142 2224.61792 1313.005371 2207.860352 1329.495361 2191.369141 C 1360.59082 2160.271729 1391.748901 2129.236572 1422.719482 2098.015137 C 1427.401978 2093.294434 1431.215332 2087.71167 1434.680298 2083.450928 C 1609.845215 2083.450928 1782.312988 2083.450928 1954.93396 2083.450928 C 1958.182007 2076.734375 1960.714233 2070.592041 1963.991699 2064.877197 C 1978.437744 2039.688965 2006.19043 2025.233521 2039.325195 2033.545654 C 2067.894287 2040.712524 2087.761475 2067.552979 2087.98584 2097.057373 C 2088.218262 2127.63208 2068.410889 2153.399414 2038.311157 2161.678711 C 2010.117188 2169.433594 1979.36499 2156.85498 1964.456543 2131.19043 C 1961.145142 2125.48999 1958.700562 2119.285889 1956.161133 2113.952881 C 1954.911865 2113.175293 1954.406616 2112.754395 1953.825684 2112.52832 C 1953.213623 2112.290527 1952.529053 2112.124023 1951.875977 2112.123047 C 1880.583984 2112.033447 1809.291992 2111.961914 1736 2111.889648 z" stroke-linecap="round" />
</g>
<g transform="matrix(0.19 0 0 0.19 300.05 246.02)"  >
<path style="stroke: none; stroke-width: 1; stroke-dasharray: none; stroke-linecap: butt; stroke-dashoffset: 0; stroke-linejoin: miter; stroke-miterlimit: 4; fill: rgb(253,205,104); fill-rule: nonzero; opacity: 1;" vector-effect="non-scaling-stroke"  transform=" translate(-2502.96, -1253.87)" d="M 2227.644531 1083.643799 C 2294.546143 1016.628662 2360.44751 950.613525 2426.907959 884.03833 C 2545.498535 884.03833 2664.033936 884.03833 2782.016602 884.03833 C 2801.692383 841.307983 2829.191406 824.454468 2864.519043 832.624817 C 2894.054199 839.455627 2916.135498 868.044556 2915.507568 898.639954 C 2914.87207 929.601013 2892.945801 955.881714 2862.098877 962.654663 C 2829.007812 969.920471 2800.766602 952.289551 2782.82373 912.399475 C 2779.608154 912.024414 2775.797607 911.19397 2771.986572 911.191528 C 2664.017822 911.123047 2556.049072 911.132324 2448.080322 911.166321 C 2444.773438 911.167358 2441.466309 911.568237 2437.886963 911.800354 C 2433.094971 916.437927 2428.260254 920.985901 2423.568115 925.67688 C 2343.915527 1005.312073 2264.280518 1084.964844 2184.641357 1164.613647 C 2181.815674 1167.439697 2179.122559 1170.417114 2176.127686 1173.051392 C 2171.758789 1176.894653 2170.148682 1181.669189 2170.403076 1187.315674 C 2170.522949 1189.976074 2170.41626 1192.646362 2170.41626 1195.312256 C 2170.418457 1305.946899 2170.421143 1416.581543 2170.42334 1527.216187 C 2170.42334 1532.50415 2170.423096 1537.791992 2170.423096 1543.681396 C 2176.97998 1546.74231 2183.135742 1549.056519 2188.733154 1552.326538 C 2212.037598 1565.941284 2224.344238 1586.596558 2223.153076 1613.418823 C 2221.963867 1640.192505 2208.203613 1660.102905 2183.629395 1671.336426 C 2151.41333 1686.063354 2112.587158 1671.55188 2096.998535 1639.604004 C 2081.801758 1608.458984 2093.658691 1569.993652 2123.960449 1552.858521 C 2129.68457 1549.621704 2135.934814 1547.315186 2142.939697 1544.125244 C 2143.152588 1537.008667 2143.55249 1529.816406 2143.555176 1522.623901 C 2143.595215 1411.322754 2143.508301 1300.021484 2143.639648 1188.720581 C 2143.67041 1162.822876 2140.80542 1170.839233 2158.821533 1152.54187 C 2181.265381 1129.747803 2204.022705 1107.262451 2227.644531 1083.643799 z" stroke-linecap="round" />
</g>
<g transform="matrix(0.19 0 0 0.19 835.04 554.74)"  >
<path style="stroke: none; stroke-width: 1; stroke-dasharray: none; stroke-linecap: butt; stroke-dashoffset: 0; stroke-linejoin: miter; stroke-miterlimit: 4; fill: rgb(253,205,104); fill-rule: nonzero; opacity: 1;" vector-effect="non-scaling-stroke"  transform=" translate(-5298.95, -2864.17)" d="M 4722.842773 2985.27002 C 4705.675781 2967.975098 4699.041016 2948.526367 4702.869141 2925.879395 C 4709.824219 2884.741699 4750.807129 2860.641113 4790.320312 2874.318359 C 4794.661133 2875.820801 4798.863281 2877.724365 4804.377441 2879.944092 C 4822.047363 2863.153809 4839.109863 2845.483398 4856.519531 2828.18042 C 4873.540039 2811.263916 4890.527344 2794.312988 4907.400879 2777.250244 C 4924.730957 2759.725098 4941.907227 2742.047119 4958.859375 2724.733887 C 5200.668945 2724.733887 5441.179688 2724.733887 5683.036621 2724.733887 C 5719.141113 2761.030273 5755.777344 2797.861328 5792.354492 2834.633057 C 5798.439453 2835.416748 5802.638184 2831.468262 5807.513184 2829.834961 C 5840.146973 2818.904053 5875.51709 2833.777588 5889.902344 2864.623047 C 5904.3125 2895.522949 5892.731934 2932.426758 5863.179199 2949.778809 C 5839.280273 2963.811035 5810.005371 2961.688965 5788.277344 2944.349121 C 5766.742188 2927.162842 5758.101562 2898.727783 5766.548828 2872.437744 C 5768.158691 2867.427246 5770.22168 2862.562256 5771.994629 2857.845459 C 5762.282715 2844.303955 5707.097656 2787.97876 5669.299805 2752.999756 C 5438.024902 2752.999756 5206.112793 2752.999756 4972.167969 2752.999756 C 4923.854492 2801.241211 4874.464844 2850.605713 4825.32959 2899.812744 C 4828.037598 2908.037842 4830.885742 2914.757568 4832.445801 2921.763916 C 4838.748047 2950.072754 4829.836914 2973.514404 4806.824219 2990.385742 C 4784.393066 3006.830811 4759.893555 3007.657959 4735.293457 2994.35498 C 4731.228516 2992.156738 4727.684082 2988.997803 4722.842773 2985.27002 z" stroke-linecap="round" />
</g>
<g transform="matrix(0.19 0 0 0.19 721.49 758.67)"  >
<path style="stroke: none; stroke-width: 1; stroke-dasharray: none; stroke-linecap: butt; stroke-dashoffset: 0; stroke-linejoin: miter; stroke-miterlimit: 4; fill: rgb(253,205,104); fill-rule: nonzero; opacity: 1;" vector-effect="non-scaling-stroke"  transform=" translate(-4703.22, -3931.75)" d="M 4901.180664 4362.946289 C 4875.627441 4354.873535 4860.347168 4338.475586 4853.150879 4314.60498 C 4843.454102 4310.894531 4834.071777 4313.157715 4824.933105 4312.666992 C 4812.355957 4311.991699 4799.756836 4311.724121 4787.16748 4311.282227 C 4778.558105 4302.953613 4769.830078 4294.743652 4761.358398 4286.277344 C 4670.384277 4195.362793 4579.450684 4104.407715 4488.505371 4013.464355 C 4486.148926 4011.108154 4483.925781 4008.5979 4481.404785 4006.433838 C 4476.507324 4002.22998 4474.147461 3997.191162 4474.694336 3990.611816 C 4475.07959 3985.979248 4474.759766 3981.28833 4474.759766 3976.623535 C 4474.759277 3868.667236 4474.792969 3760.710693 4474.681641 3652.754395 C 4474.674316 3645.568848 4476.180664 3638.136475 4473.070801 3631.399414 C 4431.70459 3610.89624 4415.578125 3583.417969 4424.557129 3548.167236 C 4431.250488 3521.888672 4456.395508 3497.489746 4491.52832 3498.952637 C 4522.643555 3500.248047 4547.959473 3521.942871 4554.193359 3553.498779 C 4560.62793 3586.069824 4543.11084 3613.605469 4505.22998 3630.465332 C 4504.90625 3631.048096 4504.524414 3631.607178 4504.276367 3632.220215 C 4504.031738 3632.824951 4503.775879 3633.483887 4503.774902 3634.119629 C 4503.630859 3749.398438 4503.504395 3864.67749 4503.411621 3979.956299 C 4503.409668 3982.578613 4503.806641 3985.201416 4503.884766 3986.175781 C 4603.400879 4085.69458 4701.82959 4184.125488 4801.354004 4283.652344 C 4816.89209 4283.652344 4834.092285 4283.652344 4851.839355 4283.652344 C 4854.463867 4278.040039 4856.714844 4272.544922 4859.517578 4267.34668 C 4873.717773 4241.008789 4904.031738 4226.981934 4932.086426 4233.603516 C 4961.529297 4240.552734 4982.677246 4265.230469 4984.195801 4294.410645 C 4985.808105 4325.395996 4967.508789 4352.068359 4938.211914 4361.771973 C 4926.451172 4365.66748 4914.599121 4365.056641 4901.180664 4362.946289 z" stroke-linecap="round" />
</g>
<g transform="matrix(0.19 0 0 0.19 312.49 310.14)"  >
<path style="stroke: none; stroke-width: 1; stroke-dasharray: none; stroke-linecap: butt; stroke-dashoffset: 0; stroke-linejoin: miter; stroke-miterlimit: 4; fill: rgb(253,205,104); fill-rule: nonzero; opacity: 1;" vector-effect="non-scaling-stroke"  transform=" translate(-2566.2, -1589.2)" d="M 2485.108398 1248.154175 C 2473.020508 1258.411255 2462.344482 1268.405884 2451.912598 1278.64917 C 2433.37085 1296.855347 2414.977295 1315.212036 2396.747314 1333.282104 C 2396.747314 1444.769775 2396.747314 1555.397583 2396.747314 1664.508057 C 2485.595459 1753.35791 2573.675293 1841.439209 2662.964111 1930.729736 C 2666.186523 1929.382812 2670.835449 1926.885132 2675.792725 1925.459717 C 2702.339111 1917.826538 2726.28833 1922.48645 2745.431396 1942.997314 C 2763.831543 1962.712036 2768.894043 1986.284058 2759.259277 2011.591431 C 2749.340088 2037.64624 2729.265625 2052.492676 2701.688965 2054.487549 C 2658.609131 2057.604248 2620.683594 2018.643677 2633.593018 1969.376953 C 2635.082031 1963.69458 2637.721191 1958.313721 2640.296143 1951.562988 C 2549.441895 1860.595215 2458.49707 1769.799561 2368.345215 1679.543457 C 2368.345215 1559.498413 2368.345215 1440.877686 2368.345215 1321.964233 C 2399.916748 1290.310303 2431.41333 1258.731201 2463.559082 1226.501709 C 2461.332031 1221.318604 2458.905518 1216.67395 2457.294922 1211.761841 C 2446.041504 1177.438843 2463.213867 1140.911499 2496.432129 1128.181885 C 2529.870605 1115.367798 2567.337402 1131.088135 2581.084473 1164.292603 C 2591.785645 1190.140259 2587.660645 1214.308105 2568.937256 1234.886353 C 2550.742188 1254.884155 2527.60791 1260.623779 2501.518066 1253.721313 C 2496.408936 1252.369629 2491.585693 1249.937622 2485.108398 1248.154175 z" stroke-linecap="round" />
</g>
<g transform="matrix(0.19 0 0 0.19 136.66 333.11)"  >
<path style="stroke: none; stroke-width: 1; stroke-dasharray: none; stroke-linecap: butt; stroke-dashoffset: 0; stroke-linejoin: miter; stroke-miterlimit: 4; fill: rgb(253,205,104); fill-rule: nonzero; opacity: 1;" vector-effect="non-scaling-stroke"  transform=" translate(-1648.92, -1707.82)" d="M 1522.869385 1534.869385 C 1549.661621 1507.853271 1575.454224 1481.837402 1601.619385 1455.445557 C 1685.828613 1455.445557 1769.716064 1455.445557 1854.072144 1455.445557 C 1860.934448 1434.345581 1872.284058 1417.727783 1892.352905 1408.427124 C 1906.885864 1401.692017 1922.180542 1400.620728 1937.292358 1404.617676 C 1965.995483 1412.209595 1986.971069 1436.930542 1986.584473 1469.623535 C 1986.188965 1503.07605 1962.656128 1528.191528 1931.609497 1534.149048 C 1898.869751 1540.431396 1871.242432 1522.764893 1854.450562 1483.608521 C 1850.592896 1483.099731 1846.123535 1482.002808 1841.652466 1481.996338 C 1770.350098 1481.893799 1699.047363 1481.992676 1627.745117 1481.857544 C 1618.744141 1481.840454 1611.413818 1483.447144 1604.480957 1490.424072 C 1534.039551 1561.315186 1463.226807 1631.837402 1393.062378 1701.919434 C 1390.830688 1717.736694 1390.429077 1858.678589 1392.51709 1881.350464 C 1397.366943 1883.510986 1402.83313 1885.618896 1408 1888.302979 C 1434.487549 1902.063354 1448.862671 1931.986328 1442.823975 1960.439209 C 1436.599243 1989.769165 1412.087402 2011.273926 1382.69397 2013.192139 C 1352.15625 2015.185059 1326.003174 1998.456543 1315.422852 1970.162598 C 1304.025269 1939.683228 1316.64502 1905.312744 1345.336792 1889.344849 C 1350.537598 1886.450439 1356.266479 1884.504761 1363.275513 1881.458862 C 1363.536621 1876.524536 1364.105103 1870.687744 1364.113647 1864.85022 C 1364.185181 1815.538208 1364.154297 1766.226196 1364.154297 1716.914185 C 1364.154297 1709.593872 1364.154297 1702.273682 1364.154297 1693.597168 C 1416.439819 1641.307617 1469.154785 1588.588623 1522.869385 1534.869385 z" stroke-linecap="round" />
</g>
<g transform="matrix(0.19 0 0 0.19 828.69 389.69)"  >
<path style="stroke: none; stroke-width: 1; stroke-dasharray: none; stroke-linecap: butt; stroke-dashoffset: 0; stroke-linejoin: miter; stroke-miterlimit: 4; fill: rgb(253,205,104); fill-rule: nonzero; opacity: 1;" vector-effect="non-scaling-stroke"  transform=" translate(-5262.7, -2003.73)" d="M 5429.094238 2016.002686 C 5429.09375 2059.29834 5428.940918 2100.594971 5429.210938 2141.888916 C 5429.270508 2150.983643 5427.379395 2158.092529 5420.441895 2164.923096 C 5377.253906 2207.445557 5334.566895 2250.477539 5291.689453 2293.316162 C 5289.814453 2295.189209 5287.700195 2296.82251 5284.762207 2299.382324 C 5249.70166 2299.382324 5213.788574 2299.382324 5177.23584 2299.382324 C 5174.428711 2305.133301 5172.014648 2310.474121 5169.268555 2315.637939 C 5156.593262 2339.470947 5130.677246 2354.328857 5105.007324 2351.236328 C 5076.802734 2347.838135 5056.827148 2332.945068 5047.529297 2305.550049 C 5036.81543 2273.982666 5051.84668 2239.280518 5081.964844 2224.972656 C 5112.671387 2210.385254 5149.939941 2221.637695 5167.354004 2250.987061 C 5170.721191 2256.66333 5173.166992 2262.886963 5176.381836 2269.573486 C 5180.084473 2270.021729 5183.924805 2270.86792 5187.769531 2270.889404 C 5211.746582 2271.022705 5235.738281 2270.514648 5259.697266 2271.195068 C 5270 2271.487549 5277.100098 2267.859131 5284.154785 2260.692139 C 5319.195801 2225.092529 5354.460449 2189.704346 5390.191895 2154.800537 C 5398.082031 2147.093262 5400.698242 2139.138428 5400.665039 2128.454102 C 5400.352539 2028.546143 5400.47998 1928.637085 5400.47998 1828.728271 C 5400.47998 1815.452271 5400.47998 1802.176147 5400.47998 1788.599731 C 5394.431152 1785.711914 5388.983887 1783.383911 5383.789551 1780.585815 C 5357.921875 1766.649658 5344.022461 1737.770752 5349.708008 1710.077393 C 5355.813477 1680.342163 5379.855469 1658.341797 5408.741699 1656.056519 C 5439.66748 1653.609619 5467.463379 1670.925293 5477.416504 1699.94104 C 5488.823242 1733.195801 5474.287109 1765.536499 5446.661621 1780.363281 C 5441.439941 1783.165405 5435.962891 1785.490234 5431.133301 1787.784058 C 5430.341797 1789.759399 5429.422852 1790.985474 5429.42041 1792.213257 C 5429.26416 1866.143066 5429.182617 1940.072876 5429.094238 2016.002686 z" stroke-linecap="round" />
</g>
<g transform="matrix(0.19 0 0 0.19 888.64 683.34)"  >
<path style="stroke: none; stroke-width: 1; stroke-dasharray: none; stroke-linecap: butt; stroke-dashoffset: 0; stroke-linejoin: miter; stroke-miterlimit: 4; fill: rgb(253,205,104); fill-rule: nonzero; opacity: 1;" vector-effect="non-scaling-stroke"  transform=" translate(-5576.62, -3536.93)" d="M 5798.162109 3541.466553 C 5803.880859 3536.609375 5808.536133 3532.802246 5812.067383 3529.914795 C 5812.067383 3485.414551 5812.067383 3443.559326 5812.067383 3401.692383 C 5805.583008 3398.52002 5799.433105 3395.976074 5793.742676 3392.647705 C 5767.17334 3377.106689 5755.116699 3346.434326 5763.729492 3316.923828 C 5772.010254 3288.551514 5798.621094 3268.665283 5827.943359 3268.936279 C 5857.054688 3269.205566 5884.229492 3290.19043 5891.486328 3318.006348 C 5899.057617 3347.025391 5887.057617 3377.103271 5861.542969 3392.336182 C 5855.858398 3395.730225 5849.65625 3398.257812 5842.582031 3401.729004 C 5842.230469 3406.359131 5841.510254 3411.546143 5841.495605 3416.735352 C 5841.393555 3452.732178 5841.244629 3488.731445 5841.568848 3524.72583 C 5841.651367 3533.909424 5839.442383 3541.00293 5832.633789 3547.762939 C 5765.931152 3613.984375 5699.54541 3680.525635 5633.043945 3746.949707 C 5631.178223 3748.813721 5629.025391 3750.389648 5626.249512 3752.741211 C 5548.895996 3752.741211 5470.994629 3752.741211 5392.741699 3752.741211 C 5389.899902 3758.662598 5387.506348 3764.090576 5384.748047 3769.326416 C 5368.964355 3799.292969 5334.310547 3812.481689 5302.872559 3800.575928 C 5271.26709 3788.606934 5253.47998 3755.457764 5261.374023 3723.23877 C 5269.340332 3690.727295 5300.005859 3668.679199 5333.123535 3672.51123 C 5355.716797 3675.125732 5373.011719 3686.66626 5384.192871 3706.692871 C 5387.079102 3711.862549 5389.258789 3717.42627 5391.609863 3722.479736 C 5410.370605 3724.887695 5553.126953 3725.650635 5615.93457 3723.683838 C 5675.595703 3664.022217 5736.347168 3603.269531 5798.162109 3541.466553 z" stroke-linecap="round" />
</g>
<g transform="matrix(0.19 0 0 0.19 220.44 545.65)"  >
<path style="stroke: none; stroke-width: 1; stroke-dasharray: none; stroke-linecap: butt; stroke-dashoffset: 0; stroke-linejoin: miter; stroke-miterlimit: 4; fill: rgb(253,205,104); fill-rule: nonzero; opacity: 1;" vector-effect="non-scaling-stroke"  transform=" translate(-2086.81, -2817.13)" d="M 2412.430908 3013.828613 C 2380.641113 3021.994141 2347.408203 3005.148682 2335.162109 2976.30957 C 2333.605469 2972.644287 2331.956787 2969.017578 2329.949951 2964.463867 C 2233.020996 2964.463867 2135.794678 2964.463867 2037.534058 2964.463867 C 1963.670776 2890.632568 1889.760742 2816.754395 1815.161255 2742.187012 C 1809.342529 2744.240723 1803.855713 2746.195557 1798.356323 2748.114502 C 1764.7854 2759.827637 1723.784058 2740.32666 1713.990845 2701.754883 C 1707.34436 2675.576172 1714.480469 2652.708496 1734.797241 2634.909668 C 1754.59021 2617.56958 1777.797729 2614.119385 1802.06189 2623.386475 C 1827.331543 2633.037598 1841.072632 2652.398193 1844.166504 2679.251709 C 1845.82312 2693.631104 1841.543579 2706.854736 1835.860718 2718.778809 C 1836.185303 2720.462646 1836.255249 2721.118164 1836.446533 2721.736084 C 1836.642334 2722.369141 1836.803833 2723.11792 1837.241089 2723.555664 C 1905.529785 2791.921387 1973.837036 2860.268311 2042.173096 2928.586426 C 2044.512573 2930.925293 2047.148071 2932.968018 2049.423584 2934.955078 C 2143.044189 2934.955078 2236.272461 2934.955078 2329.684814 2934.955078 C 2332.355225 2929.140381 2334.547363 2923.612305 2337.342285 2918.408447 C 2351.139404 2892.722168 2378.965576 2879.366455 2408.03833 2884.283691 C 2435.081299 2888.85791 2456.761963 2911.417725 2461.202393 2939.604248 C 2465.633545 2967.731445 2452.318848 2994.54126 2426.930664 3008.12085 C 2422.860352 3010.297607 2418.314697 3011.585693 2412.430908 3013.828613 z" stroke-linecap="round" />
</g>
<g transform="matrix(0.19 0 0 0.19 861 819.33)"  >
<path style="stroke: none; stroke-width: 1; stroke-dasharray: none; stroke-linecap: butt; stroke-dashoffset: 0; stroke-linejoin: miter; stroke-miterlimit: 4; fill: rgb(253,205,104); fill-rule: nonzero; opacity: 1;" vector-effect="non-scaling-stroke"  transform=" translate(-5430.76, -4247.98)" d="M 5421.421387 4568.666992 C 5406.861816 4591.324707 5387.233398 4601.879883 5361.851562 4601.234375 C 5328.851074 4600.39502 5302.915527 4576.475098 5298.455078 4543.157715 C 5294.26123 4511.832031 5313.76709 4481.537109 5344.146973 4471.942383 C 5357.259766 4467.800781 5370.307617 4467.260254 5383.396973 4471.786621 C 5388.395996 4473.515625 5393.335938 4475.415039 5399.377441 4477.630859 C 5401.543457 4476.082031 5404.45752 4474.538086 5406.697266 4472.314453 C 5429.393555 4449.782227 5451.863281 4427.02002 5474.681152 4404.612305 C 5480.266602 4399.126953 5483.127441 4393.450684 5483.111816 4385.382812 C 5482.886719 4268.103027 5482.92627 4150.822266 5482.853027 4033.541992 C 5482.851562 4031.594482 5482.236816 4029.647461 5481.774902 4026.907471 C 5476.716797 4024.536133 5471.251953 4022.266113 5466.057617 4019.48999 C 5438.46582 4004.742676 5424.133301 3974.672363 5433.680176 3941.251221 C 5441.131836 3915.164307 5467.371582 3891.214844 5504.611816 3895.124756 C 5535.044922 3898.320312 5559.770996 3922.953369 5563.259277 3954.125488 C 5566.147461 3979.941406 5552.226074 4006.307373 5528.718262 4019.112793 C 5523.566406 4021.919434 5518.064941 4024.083496 5511.986328 4026.883301 C 5511.986328 4153.458984 5511.986328 4279.981934 5511.986328 4407.543457 C 5481.967285 4437.585449 5451.879395 4467.696289 5421.117676 4498.482422 C 5431.692871 4521.42334 5434.999512 4544.437012 5421.421387 4568.666992 z" stroke-linecap="round" />
</g>
<g transform="matrix(0.19 0 0 0.19 840.39 617.77)"  >
<path style="stroke: none; stroke-width: 1; stroke-dasharray: none; stroke-linecap: butt; stroke-dashoffset: 0; stroke-linejoin: miter; stroke-miterlimit: 4; fill: rgb(253,205,104); fill-rule: nonzero; opacity: 1;" vector-effect="non-scaling-stroke"  transform=" translate(-5324.14, -3194.34)" d="M 5234.75 3125.251709 C 5211.189453 3101.695557 5188.628418 3079.140137 5166.554688 3057.072021 C 5124.024414 3073.188477 5092.422363 3065.4729 5073.416504 3035.280273 C 5056.978516 3009.168213 5061.143555 2974.567139 5083.359375 2952.689697 C 5104.900879 2931.476562 5138.707031 2927.654297 5164.41748 2943.524414 C 5194.739746 2962.241699 5202.816406 2993.777344 5187.366699 3035.942627 C 5199.171875 3051.241943 5214.483398 3064.058838 5228.250977 3078.291016 C 5242.144531 3092.653809 5256.460938 3106.607422 5270.59375 3120.738525 C 5284.726562 3134.870361 5298.863281 3148.998291 5312.994629 3163.130615 C 5326.655762 3176.792236 5340.311523 3190.458252 5353.97168 3204.120605 C 5368.102539 3218.253662 5382.236328 3232.384521 5396.368652 3246.515869 C 5410.501465 3260.647217 5424.635254 3274.778564 5438.767578 3288.910156 C 5452.876953 3303.019043 5466.984863 3317.128174 5481.645996 3331.789307 C 5486.268555 3329.946777 5490.391602 3328.061035 5494.668945 3326.638428 C 5520.948242 3317.898438 5544.960938 3321.846436 5564.791504 3341.594238 C 5584.54541 3361.264893 5589.765625 3385.282471 5580.272461 3411.482422 C 5570.711426 3437.870117 5550.577637 3452.695801 5523.137207 3454.709229 C 5476.182617 3458.155029 5442.908691 3414.830566 5453.995117 3372.153076 C 5455.646484 3365.794678 5458.333008 3359.705078 5460.335938 3354.068115 C 5460.074707 3352.725586 5460.025391 3352.047607 5459.800293 3351.434326 C 5459.573242 3350.816406 5459.280762 3350.156738 5458.831055 3349.696777 C 5451.85791 3342.556152 5444.90625 3335.393066 5437.850098 3328.335205 C 5370.493652 3260.963379 5303.118652 3193.610596 5234.75 3125.251709 z" stroke-linecap="round" />
</g>
<g transform="matrix(0.19 0 0 0.19 529.42 466.29)"  >
<path style="stroke: none; stroke-width: 1; stroke-dasharray: none; stroke-linecap: butt; stroke-dashoffset: 0; stroke-linejoin: miter; stroke-miterlimit: 4; fill: rgb(253,205,104); fill-rule: nonzero; opacity: 1;" vector-effect="non-scaling-stroke"  transform=" translate(-3716.86, -2412.39)" d="M 4286.928711 1857.466797 C 4303.157227 1878.3927 4309.189941 1900.833008 4308.953125 1925.781006 C 4308.440918 1979.759888 4308.813477 2033.747192 4308.813477 2087.730957 C 4308.815918 2356.316895 4308.809082 2624.903076 4308.831543 2893.489014 C 4308.833008 2908.167969 4308.760742 2922.731689 4303.910156 2936.936523 C 4290.620605 2975.855713 4254.647461 3002.855225 4213.552246 3004.275391 C 4208.891602 3004.436523 4204.222656 3004.36792 4199.557617 3004.36792 C 3878.320557 3004.365234 3557.08374 3004.383057 3235.84668 3004.251221 C 3224.587646 3004.246582 3212.998291 3004.190674 3202.12793 3001.696289 C 3157.854492 2991.536865 3127.467529 2954.432617 3124.926025 2908.767334 C 3124.630127 2903.450684 3124.80249 2898.106445 3124.802246 2892.775146 C 3124.798096 2572.871094 3124.776367 2252.967041 3124.895752 1933.06311 C 3124.899658 1922.459106 3125.367676 1911.677368 3127.275879 1901.282471 C 3135.527832 1856.324463 3173.610596 1823.128784 3219.131348 1820.589478 C 3225.112793 1820.255737 3231.125 1820.439697 3237.122803 1820.439575 C 3557.693115 1820.433105 3878.263672 1820.423096 4198.833984 1820.481445 C 4207.472168 1820.483032 4216.228027 1820.467896 4224.727051 1821.77417 C 4249.388184 1825.564453 4269.808105 1837.331299 4286.928711 1857.466797 M 3219.697266 2522 C 3219.697998 2627.314209 3219.697754 2732.628174 3219.702881 2837.942383 C 3219.703369 2843.941162 3219.524902 2849.950684 3219.812256 2855.936768 C 3221.145996 2883.732666 3240.248535 2905.137695 3267.71582 2909.001709 C 3276.241211 2910.200928 3284.986816 2910.138184 3293.631592 2910.139648 C 3576.91333 2910.193359 3860.195312 2910.185303 4143.477051 2910.179199 C 4148.808594 2910.179199 4154.160156 2910.377197 4159.46875 2910.00708 C 4191.239258 2907.791504 4212.482422 2886.713135 4214.768555 2855.030518 C 4215.24707 2848.397217 4214.941406 2841.705322 4214.941406 2835.040283 C 4214.946777 2554.424561 4214.946289 2273.809082 4214.944824 1993.193359 C 4214.944824 1987.194458 4215.224609 1981.17627 4214.833496 1975.202271 C 4214.444336 1969.252563 4213.925293 1963.21167 4212.505859 1957.446289 C 4206.633789 1933.599731 4187.078125 1917.312012 4162.566406 1915.569214 C 4157.256348 1915.191528 4151.908203 1915.278198 4146.577637 1915.278076 C 3861.296387 1915.271606 3576.014893 1915.278442 3290.733643 1915.288086 C 3285.401611 1915.28833 3280.069092 1915.385742 3274.737305 1915.359985 C 3243.537598 1915.208984 3219.424561 1942.575073 3219.766357 1970.100342 C 3219.865479 1978.097168 3219.70752 1986.096924 3219.707275 1994.095337 C 3219.700439 2168.730225 3219.699463 2343.365234 3219.697266 2522 z" stroke-linecap="round" />
</g>
<g transform="matrix(0.19 0 0 0.19 510.08 471.53)"  >
<path style="stroke: none; stroke-width: 1; stroke-dasharray: none; stroke-linecap: butt; stroke-dashoffset: 0; stroke-linejoin: miter; stroke-miterlimit: 4; fill: rgb(253,205,104); fill-rule: nonzero; opacity: 1;" vector-effect="non-scaling-stroke"  transform=" translate(-3598.9, -2430.78)" d="M 3843.361572 2723.652588 C 3812.866455 2723.652588 3784.273926 2723.652588 3754.679932 2723.652588 C 3737.648438 2682.045166 3725.30249 2639.339111 3709.121338 2598.71582 C 3691.391846 2596.182861 3532.755615 2595.353271 3489.449219 2597.475586 C 3487.75293 2600.967529 3485.407471 2604.855469 3483.9021 2609.04541 C 3472.205322 2641.601562 3460.68335 2674.220215 3449.072998 2706.807617 C 3447.293701 2711.802002 3445.338623 2716.733887 3443.160889 2722.499268 C 3423.301758 2724.876465 3403.44165 2723.327148 3383.659912 2723.576904 C 3363.909424 2723.826416 3344.140137 2723.831787 3323.53833 2723.445801 C 3324.024658 2719.008545 3323.813477 2716.270996 3324.656738 2713.9104 C 3393.099609 2522.303711 3461.263184 2330.596191 3529.658203 2139.777588 C 3546.362549 2137.439453 3641.039062 2136.951172 3666.293457 2138.989014 C 3668.231445 2143.704102 3670.667236 2149.006348 3672.623535 2154.479492 C 3735.10376 2329.27124 3797.535889 2504.080078 3859.981445 2678.884277 C 3863.562988 2688.909668 3867.340576 2698.867676 3870.739014 2708.954102 C 3872.185059 2713.246338 3872.889404 2717.78833 3874.268555 2723.652588 C 3863.802002 2723.652588 3854.533203 2723.652588 3843.361572 2723.652588 M 3578.780029 2340.549316 C 3561.047607 2390.768311 3543.304688 2440.983643 3525.652588 2491.230713 C 3525.272461 2492.312744 3525.929443 2493.758789 3526.154785 2495.419189 C 3528.690186 2495.688477 3531.315186 2496.213135 3533.939941 2496.209717 C 3578.590332 2496.151123 3623.240723 2496.029785 3667.891113 2495.891357 C 3668.523682 2495.889404 3669.211182 2495.587158 3669.769775 2495.252686 C 3670.246582 2494.967285 3670.574707 2494.433105 3672.063477 2492.830566 C 3649.715576 2428.236572 3626.250244 2363.22583 3603.395996 2298.005371 C 3602.333984 2294.975098 3600.4375 2292.237549 3597.773682 2287.159424 C 3591.251953 2305.40332 3585.501221 2321.490967 3578.780029 2340.549316 z" stroke-linecap="round" />
</g>
<g transform="matrix(0.19 0 0 0.19 587.37 471.57)"  >
<path style="stroke: none; stroke-width: 1; stroke-dasharray: none; stroke-linecap: butt; stroke-dashoffset: 0; stroke-linejoin: miter; stroke-miterlimit: 4; fill: rgb(253,205,104); fill-rule: nonzero; opacity: 1;" vector-effect="non-scaling-stroke"  transform=" translate(-4000.84, -2430.97)" d="M 3940.203857 2456 C 3940.203857 2349.499756 3940.203857 2244.999756 3940.203857 2140.647949 C 3943.071289 2139.554688 3944.895508 2138.257812 3946.724854 2138.250244 C 3982.674316 2138.101807 4018.624268 2138.075684 4054.573975 2138.156006 C 4056.390869 2138.160156 4058.205322 2139.352295 4060.636963 2140.208252 C 4061.016846 2144.115967 4061.725586 2148.01001 4061.726562 2151.904053 C 4061.780762 2341.615479 4061.77417 2531.326904 4061.77417 2721.349121 C 4047.515869 2725.448486 4034.217285 2723.125977 4021.123779 2723.543457 C 4008.484619 2723.946289 3995.822754 2723.630615 3983.170898 2723.630615 C 3969.904541 2723.630615 3956.638428 2723.630859 3944.02002 2723.630859 C 3938.077148 2717.029541 3940.315186 2710.062256 3940.303467 2703.713135 C 3940.151123 2621.808838 3940.203369 2539.904541 3940.203857 2456 z" stroke-linecap="round" />
</g>
<g transform="matrix(0.19 0 0 0.19 510.37 464.34)"  >
<path style="stroke: none; stroke-width: 1; stroke-dasharray: none; stroke-linecap: butt; stroke-dashoffset: 0; stroke-linejoin: miter; stroke-miterlimit: 4; fill: rgb(248,250,251); fill-rule: nonzero; opacity: 0.27;" vector-effect="non-scaling-stroke"  transform=" translate(-3598.8, -2391.68)" d="M 3579.265137 2339.063965 C 3585.501221 2321.490967 3591.251953 2305.40332 3597.773682 2287.159424 C 3600.4375 2292.237549 3602.333984 2294.975098 3603.395996 2298.005371 C 3626.250244 2363.22583 3649.715576 2428.236572 3672.063477 2492.830566 C 3670.574707 2494.433105 3670.246582 2494.967285 3669.769775 2495.252686 C 3669.211182 2495.587158 3668.523682 2495.889404 3667.891113 2495.891357 C 3623.240723 2496.029785 3578.590332 2496.151123 3533.939941 2496.209717 C 3531.315186 2496.213135 3528.690186 2495.688477 3526.154785 2495.419189 C 3525.929443 2493.758789 3525.272461 2492.312744 3525.652588 2491.230713 C 3543.304688 2440.983643 3561.047607 2390.768311 3579.265137 2339.063965 z" stroke-linecap="round" />
</g>
<g transform="matrix(0 0 0 0 421.12 422.83)"  >
<g style=""   >
</g>
</g>
<g transform="matrix(0 0 0 0 421.12 422.83)"  >
<g style=""   >
</g>
</g>
<g transform="matrix(0 0 0 0 421.12 422.83)"  >
<g style=""   >
</g>
</g>
<g transform="matrix(0 0 0 0 421.12 422.83)"  >
<g style=""   >
</g>
</g>
<g transform="matrix(0 0 0 0 421.12 422.83)"  >
<g style=""   >
</g>
</g>
<g transform="matrix(0 0 0 0 421.12 422.83)"  >
<g style=""   >
</g>
</g>
<g transform="matrix(0.19 0 0 0.19 824.3 312.75)"  >
<path style="stroke: none; stroke-width: 1; stroke-dasharray: none; stroke-linecap: butt; stroke-dashoffset: 0; stroke-linejoin: miter; stroke-miterlimit: 4; fill: rgb(253,205,104); fill-rule: nonzero; opacity: 1;" vector-effect="non-scaling-stroke"  transform=" translate(-5232.65, -1603.62)" d="M 5679.932617 2235.068604 C 5672.318848 2221.662109 5670.400391 2208.555664 5671.992676 2195.05957 C 5674.674805 2172.314209 5686.492676 2155.386963 5706.414551 2144.228027 C 5711.547852 2141.353027 5717.083008 2139.196045 5722.048828 2136.888184 C 5724.037109 2120.115479 5724.753418 1690.677612 5722.998535 1659.758301 C 5509.987305 1446.73938 5297.53125 1234.276245 5084.254883 1020.992676 C 4988.343262 1020.992676 4891.090332 1020.992676 4793.618164 1020.992676 C 4790.819824 1026.545898 4788.360352 1032.00415 4785.411621 1037.183838 C 4770.839844 1062.782227 4742.321289 1075.566528 4714.11084 1069.302124 C 4684.549805 1062.737793 4663.503906 1039.362305 4661.386719 1009.171875 C 4659.318848 979.678833 4676.945312 953.234802 4703.324707 942.869263 C 4735.015625 930.416687 4771.268555 943.921326 4786.823242 974.439758 C 4789.514648 979.719299 4791.453613 985.382019 4794.14209 991.832703 C 4895.151367 991.832703 4996.358398 991.832703 5095.581543 991.832703 C 5314.756348 1211.010498 5532.414551 1428.671509 5751.833984 1648.09436 C 5751.833984 1808.763062 5751.833984 1971.926025 5751.833984 2135.780029 C 5758.256348 2138.873535 5764.377441 2141.268555 5769.94043 2144.596924 C 5794.563477 2159.330322 5806.151367 2181.171387 5803.764648 2209.816162 C 5801.583984 2235.990723 5782.614746 2258.970215 5756.665039 2266.127197 C 5732.472168 2272.799316 5710.405273 2267.905273 5691.925293 2250.347168 C 5687.629883 2246.266357 5684.356445 2241.109619 5679.932617 2235.068604 z" stroke-linecap="round" />
</g>
<g transform="matrix(0 0 0 0 421.12 422.83)"  >
<g style=""   >
</g>
</g>
<g transform="matrix(0 0 0 0 421.12 422.83)"  >
<g style=""   >
</g>
</g>
<g transform="matrix(0 0 0 0 421.12 422.83)"  >
<g style=""   >
</g>
</g>
<g transform="matrix(0 0 0 0 421.12 422.83)"  >
<g style=""   >
</g>
</g>
<g transform="matrix(0 0 0 0 421.12 422.83)"  >
<g style=""   >
</g>
</g>
<g transform="matrix(0 0 0 0 421.12 422.83)"  >
<g style=""   >
</g>
</g>
<g transform="matrix(0 0 0 0 421.12 422.83)"  >
<g style=""   >
</g>
</g>
<g transform="matrix(0 0 0 0 421.12 422.83)"  >
<g style=""   >
</g>
</g>
<g transform="matrix(0 0 0 0 421.12 422.83)"  >
<g style=""   >
</g>
</g>
<g transform="matrix(0 0 0 0 421.12 422.83)"  >
<g style=""   >
</g>
</g>
<g transform="matrix(0 0 0 0 421.12 422.83)"  >
<g style=""   >
</g>
</g>
<g transform="matrix(0 0 0 0 421.12 422.83)"  >
<g style=""   >
</g>
</g>
<g transform="matrix(0 0 0 0 421.12 422.83)"  >
<g style=""   >
</g>
</g>
<g transform="matrix(0 0 0 0 421.12 422.83)"  >
<g style=""   >
</g>
</g>
<g transform="matrix(0 0 0 0 421.12 422.83)"  >
<g style=""   >
</g>
</g>
<g transform="matrix(0 0 0 0 421.12 422.83)"  >
<g style=""   >
</g>
</g>
<g transform="matrix(0 0 0 0 421.12 422.83)"  >
<g style=""   >
</g>
</g>
<g transform="matrix(0 0 0 0 421.12 422.83)"  >
<g style=""   >
</g>
</g>
<g transform="matrix(0 0 0 0 421.12 422.83)"  >
<g style=""   >
</g>
</g>
<g transform="matrix(0 0 0 0 421.12 422.83)"  >
<g style=""   >
</g>
</g>
<g transform="matrix(0 0 0 0 421.12 422.83)"  >
<g style=""   >
</g>
</g>
<g transform="matrix(0 0 0 0 421.12 422.83)"  >
<g style=""   >
</g>
</g>
<g transform="matrix(0 0 0 0 743.59 725.42)"  >
<g style=""   >
</g>
</g>
<g transform="matrix(0 0 0 0 743.59 725.42)"  >
<g style=""   >
</g>
</g>
</svg>