<svg xmlns="http://www.w3.org/2000/svg" viewBox="0 0 40 32" fill="none">
  <defs>
    <linearGradient id="grad1" x1="0%" y1="0%" x2="100%" y2="100%">
      <stop offset="25.9336%" stop-color="#FFDB6E"/>
      <stop offset="100%" stop-color="#FFBC5E"/>
    </linearGradient>
  </defs>
  
  <rect x="1" y="1" width="38" height="30" rx="2" fill="url(#grad1)" opacity="0.15"/>
  <path d="M2 1h36a2 2 0 0 1 2 2v26a2 2 0 0 1-2 2H2a2 2 0 0 1-2-2V3a2 2 0 0 1 2-2z" stroke="url(#grad1)" stroke-width="1.5"/>
  
  <!-- Neural network nodes -->
  <circle cx="10" cy="8" r="2.5" fill="url(#grad1)"/>
  <circle cx="10" cy="16" r="2.5" fill="url(#grad1)"/>
  <circle cx="10" cy="24" r="2.5" fill="url(#grad1)"/>
  
  <circle cx="20" cy="12" r="2.5" fill="url(#grad1)"/>
  <circle cx="20" cy="20" r="2.5" fill="url(#grad1)"/>
  
  <circle cx="30" cy="16" r="2.5" fill="url(#grad1)"/>
  
  <!-- Connections -->
  <line x1="11.5" y1="9" x2="18.5" y2="11.5" stroke="url(#grad1)" stroke-width="1"/>
  <line x1="11.5" y1="16" x2="18.5" y2="13" stroke="url(#grad1)" stroke-width="1"/>
  <line x1="11.5" y1="16" x2="18.5" y2="19" stroke="url(#grad1)" stroke-width="1"/>
  <line x1="11.5" y1="23" x2="18.5" y2="20.5" stroke="url(#grad1)" stroke-width="1"/>
  
  <line x1="21.5" y1="13" x2="28.5" y2="15.5" stroke="url(#grad1)" stroke-width="1"/>
  <line x1="21.5" y1="19" x2="28.5" y2="16.5" stroke="url(#grad1)" stroke-width="1"/>
</svg>